<?xml version="1.0" encoding="UTF-8"?>
<svg id="Layer_1" data-name="Layer 1" xmlns="http://www.w3.org/2000/svg" viewBox="0 0 1737.51 487.86">
  <defs>
    <style>
      .cls-1 {
        fill: #231f20;
      }
    </style>
  </defs>
  <polygon class="cls-1" points="323.43 202.62 283.09 68.14 236.02 68.14 195.41 204.61 160.44 68.14 87.41 68.14 141.53 276.24 198.51 276.24 237.12 146.22 276.32 276.24 328.48 276.24 382.37 68.14 358.09 68.14 323.43 202.62"/>
  <polygon class="cls-1" points="533.18 276.24 602.57 276.24 602.57 68.14 533.18 68.14 533.18 158.91 469.46 158.91 469.46 68.14 400.11 68.14 400.11 276.24 469.46 276.24 469.46 180.37 533.18 180.37 533.18 276.24"/>
  <rect class="cls-1" x="634.96" y="88.74" width="69.39" height="187.5"/>
  <path class="cls-1" d="M657.98,75.97c3.52.94,7.25,1.45,11.08,1.45s7.56-.51,11.08-1.45c10.34-2.74,18.88-9.2,23.73-17.7,2.82-4.86,4.39-10.38,4.39-16.25,0-19.54-17.54-35.4-39.2-35.4s-39.16,15.86-39.16,35.4c0,5.87,1.57,11.4,4.39,16.25,4.86,8.46,13.39,14.96,23.69,17.7Z"/>
  <path class="cls-1" d="M903.41,207.71c0-19.19-5.37-32.15-16.64-42.29-11-9.87-28.2-15.78-50.75-22.01-13.82-3.64-24.83-6.46-32.15-10.69-7.32-3.96-11.28-9.59-11.28-19.74,0-18.64,15.51-24.28,43.98-24.28,14.69,0,33.87,1.14,52.75,3.41v-20.01c-20.6-3.96-46.52-5.95-67.4-5.95-47.11,0-93.05,10.73-93.05,66.26,0,19.46,5.64,33.29,16.06,43.43,10.46,10.46,26.24,17.23,46.25,22.56,16.92,4.54,28.47,7.64,36.38,11.87,8.18,4.5,12.41,10.14,12.41,20.29,0,18.33-13.28,25.1-48.21,25.1-18.91,0-39.2-1.41-63.75-3.64v20.01c24.83,3.96,53.3,6.19,78.4,6.19,45.66,0,97-14.37,97-70.49Z"/>
  <path class="cls-1" d="M962.62,260.42c15.63-9.01,30.94-15.55,40.77-16.96,1.84-.24,3.53-.39,5.17-.39,11.08,0,17.7,6.11,22.6,11.94.2.24.39.47.55.67V89.83h57.21v-21.7h-183.82v21.7h57.53v170.59Z"/>
  <path class="cls-1" d="M1243.05,254.51h-66.73V68.14h-69.35v208.1h125c2-7.99,5.99-15.19,11.08-21.73Z"/>
  <path class="cls-1" d="M1340.79,195.72c1.33,0,2.62.08,3.84.27v-15.63h81.22v-21.46h-81.22v-69.08h93.09v-21.7h-162.44v157.39c21.3-15.04,46.37-27.41,60.35-29.41,1.84-.27,3.52-.39,5.17-.39Z"/>
  <path class="cls-1" d="M1301.79,262.53c-8.54,5.29-14.92,9.87-19.7,13.71h58.62c4.97-6.93,7.09-7.68,10.69-8.18.67-.08,1.33-.12,2.04-.12,2.58,0,5.64.63,10.18,2.15,4.11,1.1,7.01,2.74,9.05,4.62,6.54-2.98,12.92-4.97,18.13-5.72,1.41-.2,2.78-.31,4.07-.31,7.75,0,12.92,3.41,16.17,5.95.59.47,1.18,1.02,1.76,1.61h22.64c.74-.7,1.49-1.41,2.27-2.07v-19.66h-93.09v-14.84c-15.27,7.09-29.84,14.84-42.84,22.87Z"/>
  <path class="cls-1" d="M1481.23,252.78c4.39,0,8.22.82,12.26,2.66,5.95,2.86,12.84,7.05,12.84,14.02,0,1.49-.27,2.82-.74,3.96.43.9.82,1.84,1.14,2.82h10.5c2.07-1.68,4.11-3.48,6.19-5.48v-72.06h13.55l20.56,42.57c2.9.35,5.64.98,7.75,1.8l.08.04.12.04c3.02,1.29,5.05,3.13,6.38,5.25,8.3-7.25,16.64-13.55,26.36-20.48,5.52-3.88,7.83-5.48,10.85-5.91l.74-.08h.55c3.92,0,7.87,2.51,9.48,7.95.98-1.57,1.96-3.09,2.9-4.58l-18.37-36.46c23.38-10.73,38.34-29.61,38.34-55.3,0-50.48-41.43-65.4-88.54-65.4h-97.55v192.2c6.58-3.8,12.88-6.31,18.17-7.05,2.47-.35,4.5-.51,6.46-.51ZM1523.4,89.83h23.97c18.33,0,27.37,8.46,27.37,43.7,0,31.88-9.05,42.29-27.37,42.29h-23.97v-86Z"/>
  <path class="cls-1" d="M965.4,303.22c14.49-8.93,32.07-18.29,51.73-26.98,3.72-1.64,7.56-3.29,11.44-4.9,2.31-1.02,2.31-4.74-3.29-11.2-5.33-6.3-9.99-9.24-16.72-9.24-1.29,0-2.62.12-4.07.31-9.01,1.29-25.14,8.22-41.86,18.29-7.91,4.7-15.94,10.14-23.38,15.98-20.01,15.7-33.05,30.86-33.01,49.26,0,13.31,10.97,18.52,23.81,25.77,7.95,4.46,11.47,7.95,11.47,14.49.04,14.92-27.22,34.42-75.93,49.3-4.23,1.29-4.42,7.4,5.37,15.78,5.17,4.43,9.79,7.05,16.06,7.05,1.14,0,2.31-.08,3.56-.27,10.26-1.45,29.61-9.32,49.19-24.48,14.65-11.43,24.44-24.75,24.4-37.56-.04-15.62-12.18-23.93-24.79-31.25-7.44-4.27-11.44-7.44-11.44-12.57-.04-7.95,7.87-19.35,37.48-37.79Z"/>
  <path class="cls-1" d="M1190.53,339.25c-.16-.08-.31-.12-.47-.12-.59,0-1.25.55-2.31,2.15l-.7,1.06c-9.99,14.72-26.55,30.58-44.96,42.33,14.21-24.2,28.63-51.22,31.6-62.15,1.64-5.36.94-7.36-2.78-8.93-3.25-1.14-9.12-2.27-12.61-2.27-.51,0-1.02,0-1.41.08-2.78.39-4.43,2.27-6.97,7.05-13.71,26.47-29.8,44.37-42.61,53.22,6.27-17.7,14.18-35.64,16.25-43.39,2.31-8.26.2-12.18-9.36-13.35-2.82-.39-5.76-.55-7.83-.55-.98,0-1.72.04-2.19.08-1.88.27-2.55.86-3.02,2.07-4.11,9.87-12.38,26.24-19.23,41.04-9.75,14.57-20.56,26.94-28,29.84-3.02-6.77-2.11-21.15,3.45-40.61,8.15-7.01,15.82-14.14,22.79-21.93,5.37-5.87,7.91-9.52,7.91-15.12,0-3.09-1.02-5.29-2.31-5.29-.43,0-.94.31-1.41.94-21.66,25.92-37.28,35.87-59.84,55.88,25.34-43.04,41.35-70.06,50.67-87.72,5.8-11.08,8.34-21.73,3.45-25.69-3.52-2.78-9.83-3.96-14.72-4.66-.23-.04-.47-.04-.71-.04-1.61,0-2.55.63-4.19,3.53-10.69,19.03-48.56,83.69-72.53,124.18-5.13,8.69-8.62,15.7-11.16,21.22-9.83,21.62-7.32,25.22-1.64,25.22.74,0,1.57-.04,2.39-.16,13.08-1.14,16.33-.47,33.33-22.95,4.43-5.76,9.09-11.08,13.98-16.21-.82,22.4,2.66,31.6,12.65,31.6.86,0,1.8-.08,2.78-.2,9.91-1.41,22.56-13.9,33.09-27.61-3.17,10.53-2.31,13.59,3.29,16.6,3.41,1.84,5.56,2.62,8.22,2.62.78,0,1.61-.08,2.51-.2,7.68-1.1,15.63-6.19,33.76-26.98-5.09,9.59-10.69,19.03-16.49,28-31.96,11.32-58.98,21.27-72.96,35.6-6.97,7.28-9.99,14.96-9.99,21.26,0,8.62,3.76,13.94,9.36,18.01,4.78,3.41,9.28,4.5,13.75,4.5,1.64,0,3.29-.16,4.93-.39,16.33-2.31,50.56-24.71,83.8-79.85,28.2-15.19,43.55-32.78,58.9-55.49l.7-1.06c.94-1.29,1.41-3.68-.24-4.62l-.94-.59ZM1038,466.01c-.67.08-1.21.16-1.8.16-.24,0-.51,0-.78-.04-.71-5.95,1.17-12.77,9.08-20.87,9.09-9.24,20.72-16.06,47.74-27.37-22.56,31.25-40.73,46.17-54.24,48.13Z"/>
  <path class="cls-1" d="M1296.43,337.49c-.04-15.63-12.18-23.93-24.79-31.25-7.48-4.31-11.43-7.48-11.47-12.61,0-5.37,3.6-12.3,15.12-21.93,5.48-4.62,12.8-9.87,22.4-15.82,13.31-8.18,29.21-16.76,46.95-24.87,5.25-2.39,10.61-4.74,16.17-7.01,2.35-1.02,2.31-4.74-3.29-11.2-4.23-5.05-8.07-7.91-12.88-8.85-1.21-.27-2.47-.39-3.84-.39-1.25,0-2.62.12-4.03.31-12.61,1.76-38.97,14.57-61.48,31.41-1.29.94-2.51,1.88-3.76,2.86-6.97,5.44-13.12,10.85-18.13,16.37-6.38,6.97-11,14.1-13.24,21.73-1.14,3.6-1.68,7.32-1.68,11.16.04,13.31,11,18.52,23.85,25.77,7.95,4.46,11.43,7.95,11.47,14.49,0,14.92-27.26,34.42-75.97,49.3-4.19,1.29-4.43,7.4,5.4,15.78,5.13,4.43,9.79,7.05,16.02,7.05,1.14,0,2.35-.08,3.6-.27,10.26-1.45,29.61-9.36,49.15-24.51,14.69-11.4,24.48-24.71,24.44-37.52Z"/>
  <path class="cls-1" d="M1716.27,235.86c-4.31-6.03-8.81-8.11-13.71-8.11-.94,0-1.88.08-2.86.24-3.96.55-11.2,3.68-17.03,7.99-10.69,7.6-17.9,17.5-17.9,27.3,0,1.21.16,2.39.43,3.45.47,1.96,1.33,3.68,2.43,5.29-.2.27-.43.59-.74,1.02l-.67,1.02c-6.38,9.52-12.45,17.07-18.52,22.95-10.03,9.71-20.01,14.92-31.33,17.27.63-3.45,2.59-8.3,6.38-15.66,2.94-5.8,7.01-13.08,12.37-22.36,2.15-3.72,4.5-7.75,7.09-12.14,1.68-2.86,3.45-5.83,5.33-9.01v-.04c1.96-3.33,4.03-6.81,6.23-10.49l12.14-4.54c8.62-3.33,8.85-4.74,11.63-5.6,2.82-.9,4.9-3.52,4.9-6.07,0-.78-.16-1.37-1.49-1.37-.31,0-.67.04-1.06.08-4.66.67-10.73,1.76-17.5,2.98,14.41-24.48,16.49-30.11,6.7-36.89-3.95-2.94-5.21-6.27-8.07-6.27-.2,0-.39,0-.59.04-1.84.27-4.66,2.51-11.63,12.84-7.68,11.24-14.65,22.01-21.97,33.72-1.13,1.76-2.23,3.56-3.37,5.37-5.8,1.45-11.55,3.13-16.8,4.54.55-.47,1.1-.98,1.64-1.45,2.78-2.51,4.43-4.15,4.43-6.46s-.67-5.72-2.39-5.72h-.2c-1.18.2-3.25,1.64-7.44,4.58-8.58,6.15-16.57,12.06-24.67,19.11-3.33,2.86-6.7,5.91-10.14,9.24-.9.86-1.8,1.76-2.7,2.66.55-2.39.9-4.39,1.06-6.07.04-.74.08-1.45.08-2.08-.08-4.27-1.76-5.91-3.96-6.85-.16-.08-.35-.12-.55-.2-2.47-.86-6.15-1.37-9.56-1.37-.86,0-1.68,0-2.51.08-2.78.16-3.96.82-4.66,2.31-1.8,3.8-6.11,11.36-12.37,21.38-9.71,10.1-20.83,18.41-32.31,21.85.24-2.15.47-4.27.47-6.38-.04-4.66-1.02-8.62-2.7-11.79-.63-1.25-1.37-2.39-2.23-3.37,2.31-1.72,2.55-2.47,2.55-3.41,0-1.37-1.65-3.72-8.42-6.97-2.98-1.37-5.8-1.88-8.85-1.88-1.68,0-3.45.16-5.36.43-5.37.78-12.18,3.88-19.27,8.46-9.24,5.99-18.92,14.53-26.43,23.85-5.8,3.6-12.02,6.42-18.37,8.77.24-1.88.47-3.8.47-5.64,0-7.48-2.35-12.73-6.11-15.7-3.09-2.47-6.54-4.27-11.28-4.27-.94,0-1.92.08-2.94.24-6.07.86-14.45,3.92-22.63,8.34,0-4.19-3.25-6.31-7.95-7.48-1.96-.67-3.49-1.1-4.66-1.37-1.45-.35-2.47-.47-3.25-.47-.35,0-.67,0-.94.04-.39.08-.78.16-1.21.43-2.9,1.61-7.83,9.2-30.19,46.99-17.9,30.08-38.81,69.24-62.74,115.57-2.47,4.9-1.1,6.7,1.64,6.7.39,0,.74-.04,1.18-.08,1.84-.27,4.43-1.14,7.91-2.31,10.03-3.52,16.57-7.05,30.74-28.43,9.05-13.63,22.56-36.34,35.09-58.9,2.43,6.31,6.77,9.4,13,9.4.98,0,2.04-.08,3.13-.24,13.04-1.88,32.39-13.98,44.72-30.19,6.03-7.87,10.93-16.25,13.71-24.12,4.31-1.65,8.54-3.45,12.61-5.44-11,19.27-8.81,33.05.74,42.53,5.01,4.86,10.53,7.6,17.94,7.6,1.57,0,3.21-.12,4.93-.39,23.11-3.29,43.35-27.61,51.46-49.07,7.64-2.43,15.16-6.89,22.01-12.22-.35.51-.71,1.02-1.06,1.53-11.16,16.53-16.25,25.89-16.25,33.8,0,5.13,2.35,7.83,7.71,10.81,4.35,2.35,7.83,3.45,10.93,3.45.59,0,1.14-.04,1.68-.12,3.72-.51,5.13-2.11,15.12-17.31,5.83-8.85,11.51-16.96,16.96-24.36,6.97-9.44,13.63-17.78,20.13-25.3,9.28-10.77,18.13-19.85,26.86-27.88.86,2.11,2.9,5.01,5.21,6.77,1.45,1.06,2.47,1.64,4.27,1.64.51,0,1.1-.08,1.8-.16-3.6,6.19-7.44,12.65-11.67,19.74-1.49,2.51-3.02,5.13-4.62,7.79-3.92,6.58-6.7,12.1-8.54,16.8-5.09,13.12-2.51,19.89,4.9,25.69,5.17,4.27,10.49,5.56,15,5.56,1.21,0,2.35-.08,3.45-.24,14.25-2.04,32.62-19.7,45.5-35.44,6.11-7.44,11-14.45,13.63-19.19l.7-1.25c4.27,4.46,9.09,8.03,9.09,12.92,0,1.8-.63,3.88-2,6.15-4.11,7.25-14.96,16.57-32.66,25.14-1.88.98-2.35,2.43-1.41,4.42.94,2.19,2.58,4.5,5.13,6.97,2.86,2.62,5.87,4.15,10.26,4.15,1.02,0,2.11-.08,3.29-.27,8.38-1.18,17.7-6.7,22.83-11.16,10.73-9.24,14.21-17.19,14.18-24.67,0-2.27-.35-4.19-.9-5.91-1.76-5.05-5.52-8.03-8.65-10.57t-.08-.08c-.08-.08-.16-.16-.27-.2-2.55-2.11-4.58-3.99-4.58-6.62,0-8.14,17.47-20.68,33.76-28.12,2.59-1.33,3.02-4.19-2.58-12.26ZM1344.48,344.38c-.24-.67-.47-1.8-.47-2.7-.04-10.26,13.04-14.26,33.33-20.4-9.32,9.52-20.75,18.13-32.86,23.11ZM1387.79,309.06c-14.45,4.15-25.42,7.6-33.56,10.85,12.81-19.54,33.29-30.86,44.49-33.87,0,5.6-4.19,14.14-10.93,23.03ZM1445,338.23c-1.68-14.45,9.48-30.98,24.16-44.96.7,7.6,4.93,13.51,14.02,14.57-9.09,13.86-24.2,27.02-38.18,30.39ZM1489.21,296.02c-7.68-.08-11.2-3.8-11.67-10.02,3.96-3.13,7.91-6.03,11.63-8.65,1.41,1.68,2.11,4.39,2.11,8.34,0,3.25-.67,6.62-2.08,10.34Z"/>
  <path class="cls-1" d="M875.03,359.76c-1.35-2.94-4.83-4.23-7.79-2.89-7.11,3.27-14.29,6.44-21.33,9.42-2.99,1.27-4.38,4.71-3.12,7.7.95,2.24,3.12,3.58,5.41,3.58.76,0,1.54-.15,2.29-.47,7.15-3.03,14.44-6.25,21.65-9.56,2.95-1.35,4.24-4.84,2.89-7.79Z"/>
  <path class="cls-1" d="M70.06,261.05c-2.27-2.35-5.99-2.43-8.3-.2-2.35,2.23-2.43,5.95-.2,8.3,10.57,11.04,22.09,21.73,34.27,31.84,1.1.94,2.43,1.37,3.76,1.37,1.68,0,3.37-.74,4.5-2.11,2.08-2.51,1.76-6.23-.74-8.3-11.87-9.79-23.07-20.21-33.29-30.9Z"/>
  <path class="cls-1" d="M624.46,418.83c-14.61.98-30.04,1.61-45.78,1.88-3.25.08-5.83,2.74-5.8,5.99.08,3.21,2.7,5.76,5.87,5.76h.12c15.98-.27,31.56-.9,46.37-1.92,3.25-.24,5.68-3.02,5.48-6.27-.24-3.25-3.09-5.72-6.27-5.44Z"/>
  <path class="cls-1" d="M715.12,406.96c-14.69,2.9-29.84,5.4-45.11,7.4-3.21.39-5.48,3.33-5.09,6.58.39,2.94,2.94,5.09,5.83,5.09.24,0,.51,0,.74-.04,15.55-2.04,31.02-4.54,45.94-7.52,3.17-.63,5.25-3.72,4.58-6.93-.63-3.17-3.72-5.25-6.89-4.58Z"/>
  <path class="cls-1" d="M532.78,420.55c-14.53-.31-29.57-.86-45.94-1.68-3.33-.12-5.99,2.31-6.15,5.56-.16,3.25,2.31,5.99,5.56,6.15,16.49.86,31.6,1.41,46.25,1.72h.16c3.17,0,5.8-2.55,5.87-5.72.04-3.25-2.51-5.95-5.76-6.03Z"/>
  <path class="cls-1" d="M440.91,416.08c-4.03-.31-8.07-.59-12.14-.9-10.96-.78-22.2-1.92-33.44-3.37-3.25-.47-6.15,1.88-6.58,5.09-.39,3.21,1.88,6.15,5.09,6.58,11.43,1.45,22.91,2.62,34.07,3.45,4.07.27,8.15.59,12.22.86h.39c3.05,0,5.64-2.35,5.87-5.44.2-3.25-2.23-6.07-5.48-6.27Z"/>
  <path class="cls-1" d="M803.23,382.8c-14.45,5.05-29.14,9.63-43.63,13.63-3.13.86-4.97,4.07-4.11,7.21.71,2.62,3.05,4.35,5.64,4.35.51,0,1.06-.08,1.57-.24,14.76-4.03,29.72-8.69,44.41-13.82,3.05-1.1,4.66-4.42,3.6-7.52-1.06-3.05-4.42-4.66-7.48-3.6Z"/>
  <path class="cls-1" d="M178.85,342.81c-13.55-7.4-26.67-15.35-39-23.61-2.7-1.84-6.34-1.1-8.15,1.61-1.8,2.66-1.1,6.34,1.61,8.15,12.65,8.46,26.04,16.6,39.9,24.16.9.51,1.84.7,2.82.7,2.08,0,4.07-1.1,5.17-3.05,1.53-2.82.47-6.38-2.35-7.95Z"/>
  <path class="cls-1" d="M350.26,404.34c-14.88-3.02-29.84-6.62-44.45-10.65-3.13-.86-6.38.98-7.25,4.11-.86,3.13.98,6.34,4.11,7.21,14.84,4.11,30.08,7.75,45.23,10.85.39.08.78.12,1.18.12,2.74,0,5.17-1.92,5.76-4.7.63-3.17-1.41-6.3-4.58-6.93Z"/>
  <path class="cls-1" d="M262.22,379.94c-14.45-5.17-28.74-10.85-42.45-16.92-2.98-1.33-6.42,0-7.75,2.98-1.29,2.98.04,6.42,2.98,7.75,14.02,6.19,28.55,12.02,43.27,17.23.67.24,1.33.35,1.96.35,2.43,0,4.7-1.49,5.56-3.92,1.1-3.05-.51-6.38-3.56-7.48Z"/>
  <path class="cls-1" d="M27.66,207.29c-1.74-2.75-5.38-3.55-8.11-1.81-2.74,1.74-3.55,5.37-1.81,8.11,4.22,6.64,8.77,13.27,13.53,19.71,1.15,1.56,2.93,2.38,4.73,2.38,1.21,0,2.44-.37,3.49-1.15,2.61-1.93,3.16-5.6,1.23-8.21-4.6-6.23-8.99-12.63-13.07-19.03Z"/>
</svg>