<?xml version="1.0" encoding="UTF-8"?>
<svg id="Layer_1" data-name="Layer 1" xmlns="http://www.w3.org/2000/svg" viewBox="0 0 1712.24 1130.06">
  <defs>
    <style>
      .cls-1 {
        fill: #231f20;
      }
    </style>
  </defs>
  <g>
    <polygon class="cls-1" points="310.79 839.22 270.46 704.74 223.38 704.74 182.77 841.22 147.8 704.74 74.77 704.74 128.89 912.84 185.87 912.84 224.48 782.83 263.68 912.84 315.84 912.84 369.73 704.74 345.45 704.74 310.79 839.22"/>
    <polygon class="cls-1" points="520.54 912.84 589.93 912.84 589.93 704.74 520.54 704.74 520.54 795.51 456.82 795.51 456.82 704.74 387.47 704.74 387.47 912.84 456.82 912.84 456.82 816.97 520.54 816.97 520.54 912.84"/>
    <rect class="cls-1" x="622.32" y="725.34" width="69.39" height="187.5"/>
    <path class="cls-1" d="M645.34,712.57c3.52.94,7.25,1.45,11.08,1.45s7.56-.51,11.08-1.45c10.34-2.74,18.88-9.2,23.73-17.7,2.82-4.86,4.39-10.38,4.39-16.25,0-19.54-17.54-35.4-39.2-35.4s-39.16,15.86-39.16,35.4c0,5.87,1.57,11.4,4.39,16.25,4.86,8.46,13.39,14.96,23.69,17.7Z"/>
    <path class="cls-1" d="M890.77,844.31c0-19.19-5.37-32.15-16.64-42.29-11-9.87-28.2-15.78-50.75-22.01-13.82-3.64-24.83-6.46-32.15-10.69-7.32-3.96-11.28-9.59-11.28-19.74,0-18.64,15.51-24.28,43.98-24.28,14.69,0,33.87,1.14,52.75,3.41v-20.01c-20.6-3.96-46.52-5.95-67.4-5.95-47.11,0-93.05,10.73-93.05,66.26,0,19.46,5.64,33.29,16.06,43.43,10.46,10.46,26.24,17.23,46.25,22.56,16.92,4.54,28.47,7.64,36.38,11.87,8.18,4.5,12.41,10.14,12.41,20.29,0,18.33-13.28,25.1-48.21,25.1-18.91,0-39.2-1.41-63.75-3.64v20.01c24.83,3.96,53.3,6.19,78.4,6.19,45.66,0,97-14.37,97-70.49Z"/>
    <path class="cls-1" d="M949.98,897.02c15.63-9.01,30.94-15.55,40.77-16.96,1.84-.24,3.53-.39,5.17-.39,11.08,0,17.7,6.11,22.6,11.94.2.24.39.47.55.67v-165.85h57.21v-21.7h-183.82v21.7h57.53v170.59Z"/>
    <path class="cls-1" d="M1230.41,891.11h-66.73v-186.37h-69.35v208.1h125c2-7.99,5.99-15.19,11.08-21.73Z"/>
    <path class="cls-1" d="M1328.16,832.33c1.33,0,2.62.08,3.84.27v-15.63h81.22v-21.46h-81.22v-69.08h93.09v-21.7h-162.44v157.39c21.3-15.04,46.37-27.41,60.35-29.41,1.84-.27,3.52-.39,5.17-.39Z"/>
    <path class="cls-1" d="M1289.15,899.13c-8.54,5.29-14.92,9.87-19.7,13.71h58.62c4.97-6.93,7.09-7.68,10.69-8.18.67-.08,1.33-.12,2.04-.12,2.58,0,5.64.63,10.18,2.15,4.11,1.1,7.01,2.74,9.05,4.62,6.54-2.98,12.92-4.97,18.13-5.72,1.41-.2,2.78-.31,4.07-.31,7.75,0,12.92,3.41,16.17,5.95.59.47,1.18,1.02,1.76,1.61h22.64c.74-.7,1.49-1.41,2.27-2.07v-19.66h-93.09v-14.84c-15.27,7.09-29.84,14.84-42.84,22.87Z"/>
    <path class="cls-1" d="M1468.59,889.38c4.39,0,8.22.82,12.26,2.66,5.95,2.86,12.84,7.05,12.84,14.02,0,1.49-.27,2.82-.74,3.96.43.9.82,1.84,1.14,2.82h10.5c2.07-1.68,4.11-3.48,6.19-5.48v-72.06h13.55l20.56,42.57c2.9.35,5.64.98,7.75,1.8l.08.04.12.04c3.02,1.29,5.05,3.13,6.38,5.25,8.3-7.25,16.64-13.55,26.36-20.48,5.52-3.88,7.83-5.48,10.85-5.91l.74-.08h.55c3.92,0,7.87,2.51,9.48,7.95.98-1.57,1.96-3.09,2.9-4.58l-18.37-36.46c23.38-10.73,38.34-29.61,38.34-55.3,0-50.48-41.43-65.4-88.54-65.4h-97.55v192.2c6.58-3.8,12.88-6.31,18.17-7.05,2.47-.35,4.5-.51,6.46-.51ZM1510.76,726.43h23.97c18.33,0,27.37,8.46,27.37,43.7,0,31.88-9.05,42.29-27.37,42.29h-23.97v-86Z"/>
    <path class="cls-1" d="M952.76,939.82c14.49-8.93,32.07-18.29,51.73-26.98,3.72-1.64,7.56-3.29,11.44-4.9,2.31-1.02,2.31-4.74-3.29-11.2-5.33-6.3-9.99-9.24-16.72-9.24-1.29,0-2.62.12-4.07.31-9.01,1.29-25.14,8.22-41.86,18.29-7.91,4.7-15.94,10.14-23.38,15.98-20.01,15.7-33.05,30.86-33.01,49.26,0,13.31,10.97,18.52,23.81,25.77,7.95,4.46,11.47,7.95,11.47,14.49.04,14.92-27.22,34.42-75.93,49.3-4.23,1.29-4.42,7.4,5.37,15.78,5.17,4.43,9.79,7.05,16.06,7.05,1.14,0,2.31-.08,3.56-.27,10.26-1.45,29.61-9.32,49.19-24.48,14.65-11.43,24.44-24.75,24.4-37.56-.04-15.62-12.18-23.93-24.79-31.25-7.44-4.27-11.44-7.44-11.44-12.57-.04-7.95,7.87-19.35,37.48-37.79Z"/>
    <path class="cls-1" d="M1177.89,975.85c-.16-.08-.31-.12-.47-.12-.59,0-1.25.55-2.31,2.15l-.7,1.06c-9.99,14.72-26.55,30.58-44.96,42.33,14.21-24.2,28.63-51.22,31.6-62.15,1.64-5.36.94-7.36-2.78-8.93-3.25-1.14-9.12-2.27-12.61-2.27-.51,0-1.02,0-1.41.08-2.78.39-4.43,2.27-6.97,7.05-13.71,26.47-29.8,44.37-42.61,53.22,6.27-17.7,14.18-35.64,16.25-43.39,2.31-8.26.2-12.18-9.36-13.35-2.82-.39-5.76-.55-7.83-.55-.98,0-1.72.04-2.19.08-1.88.27-2.55.86-3.02,2.07-4.11,9.87-12.38,26.24-19.23,41.04-9.75,14.57-20.56,26.94-28,29.84-3.02-6.77-2.11-21.15,3.45-40.61,8.15-7.01,15.82-14.14,22.79-21.93,5.37-5.87,7.91-9.52,7.91-15.12,0-3.09-1.02-5.29-2.31-5.29-.43,0-.94.31-1.41.94-21.66,25.92-37.28,35.87-59.84,55.88,25.34-43.04,41.35-70.06,50.67-87.72,5.8-11.08,8.34-21.73,3.45-25.69-3.52-2.78-9.83-3.96-14.72-4.66-.23-.04-.47-.04-.71-.04-1.61,0-2.55.63-4.19,3.53-10.69,19.03-48.56,83.69-72.53,124.18-5.13,8.69-8.62,15.7-11.16,21.22-9.83,21.62-7.32,25.22-1.64,25.22.74,0,1.57-.04,2.39-.16,13.08-1.14,16.33-.47,33.33-22.95,4.43-5.76,9.09-11.08,13.98-16.21-.82,22.4,2.66,31.6,12.65,31.6.86,0,1.8-.08,2.78-.2,9.91-1.41,22.56-13.9,33.09-27.61-3.17,10.53-2.31,13.59,3.29,16.6,3.41,1.84,5.56,2.62,8.22,2.62.78,0,1.61-.08,2.51-.2,7.68-1.1,15.63-6.19,33.76-26.98-5.09,9.59-10.69,19.03-16.49,28-31.96,11.32-58.98,21.27-72.96,35.6-6.97,7.28-9.99,14.96-9.99,21.26,0,8.62,3.76,13.94,9.36,18.01,4.78,3.41,9.28,4.5,13.75,4.5,1.64,0,3.29-.16,4.93-.39,16.33-2.31,50.56-24.71,83.8-79.85,28.2-15.19,43.55-32.78,58.9-55.49l.7-1.06c.94-1.29,1.41-3.68-.24-4.62l-.94-.59ZM1025.36,1102.62c-.67.08-1.21.16-1.8.16-.24,0-.51,0-.78-.04-.71-5.95,1.17-12.77,9.08-20.87,9.09-9.24,20.72-16.06,47.74-27.37-22.56,31.25-40.73,46.17-54.24,48.13Z"/>
    <path class="cls-1" d="M1283.79,974.09c-.04-15.63-12.18-23.93-24.79-31.25-7.48-4.31-11.43-7.48-11.47-12.61,0-5.37,3.6-12.3,15.12-21.93,5.48-4.62,12.8-9.87,22.4-15.82,13.31-8.18,29.21-16.76,46.95-24.87,5.25-2.39,10.61-4.74,16.17-7.01,2.35-1.02,2.31-4.74-3.29-11.2-4.23-5.05-8.07-7.91-12.88-8.85-1.21-.27-2.47-.39-3.84-.39-1.25,0-2.62.12-4.03.31-12.61,1.76-38.97,14.57-61.48,31.41-1.29.94-2.51,1.88-3.76,2.86-6.97,5.44-13.12,10.85-18.13,16.37-6.38,6.97-11,14.1-13.24,21.73-1.14,3.6-1.68,7.32-1.68,11.16.04,13.31,11,18.52,23.85,25.77,7.95,4.46,11.43,7.95,11.47,14.49,0,14.92-27.26,34.42-75.97,49.3-4.19,1.29-4.43,7.4,5.4,15.78,5.13,4.43,9.79,7.05,16.02,7.05,1.14,0,2.35-.08,3.6-.27,10.26-1.45,29.61-9.36,49.15-24.51,14.69-11.4,24.48-24.71,24.44-37.52Z"/>
    <path class="cls-1" d="M1703.63,872.47c-4.31-6.03-8.81-8.11-13.71-8.11-.94,0-1.88.08-2.86.24-3.96.55-11.2,3.68-17.03,7.99-10.69,7.6-17.9,17.5-17.9,27.3,0,1.21.16,2.39.43,3.45.47,1.96,1.33,3.68,2.43,5.29-.2.27-.43.59-.74,1.02l-.67,1.02c-6.38,9.52-12.45,17.07-18.52,22.95-10.03,9.71-20.01,14.92-31.33,17.27.63-3.45,2.59-8.3,6.38-15.66,2.94-5.8,7.01-13.08,12.37-22.36,2.15-3.72,4.5-7.75,7.09-12.14,1.68-2.86,3.45-5.83,5.33-9.01v-.04c1.96-3.33,4.03-6.81,6.23-10.49l12.14-4.54c8.62-3.33,8.85-4.74,11.63-5.6,2.82-.9,4.9-3.52,4.9-6.07,0-.78-.16-1.37-1.49-1.37-.31,0-.67.04-1.06.08-4.66.67-10.73,1.76-17.5,2.98,14.41-24.48,16.49-30.11,6.7-36.89-3.95-2.94-5.21-6.27-8.07-6.27-.2,0-.39,0-.59.04-1.84.27-4.66,2.51-11.63,12.84-7.68,11.24-14.65,22.01-21.97,33.72-1.13,1.76-2.23,3.56-3.37,5.37-5.8,1.45-11.55,3.13-16.8,4.54.55-.47,1.1-.98,1.64-1.45,2.78-2.51,4.43-4.15,4.43-6.46s-.67-5.72-2.39-5.72h-.2c-1.18.2-3.25,1.64-7.44,4.58-8.58,6.15-16.57,12.06-24.67,19.11-3.33,2.86-6.7,5.91-10.14,9.24-.9.86-1.8,1.76-2.7,2.66.55-2.39.9-4.39,1.06-6.07.04-.74.08-1.45.08-2.08-.08-4.27-1.76-5.91-3.96-6.85-.16-.08-.35-.12-.55-.2-2.47-.86-6.15-1.37-9.56-1.37-.86,0-1.68,0-2.51.08-2.78.16-3.96.82-4.66,2.31-1.8,3.8-6.11,11.36-12.37,21.38-9.71,10.1-20.83,18.41-32.31,21.85.24-2.15.47-4.27.47-6.38-.04-4.66-1.02-8.62-2.7-11.79-.63-1.25-1.37-2.39-2.23-3.37,2.31-1.72,2.55-2.47,2.55-3.41,0-1.37-1.65-3.72-8.42-6.97-2.98-1.37-5.8-1.88-8.85-1.88-1.68,0-3.45.16-5.36.43-5.37.78-12.18,3.88-19.27,8.46-9.24,5.99-18.92,14.53-26.43,23.85-5.8,3.6-12.02,6.42-18.37,8.77.24-1.88.47-3.8.47-5.64,0-7.48-2.35-12.73-6.11-15.7-3.09-2.47-6.54-4.27-11.28-4.27-.94,0-1.92.08-2.94.24-6.07.86-14.45,3.92-22.63,8.34,0-4.19-3.25-6.31-7.95-7.48-1.96-.67-3.49-1.1-4.66-1.37-1.45-.35-2.47-.47-3.25-.47-.35,0-.67,0-.94.04-.39.08-.78.16-1.21.43-2.9,1.61-7.83,9.2-30.19,46.99-17.9,30.08-38.81,69.24-62.74,115.57-2.47,4.9-1.1,6.7,1.64,6.7.39,0,.74-.04,1.18-.08,1.84-.27,4.43-1.14,7.91-2.31,10.03-3.52,16.57-7.05,30.74-28.43,9.05-13.63,22.56-36.34,35.09-58.9,2.43,6.31,6.77,9.4,13,9.4.98,0,2.04-.08,3.13-.24,13.04-1.88,32.39-13.98,44.72-30.19,6.03-7.87,10.93-16.25,13.71-24.12,4.31-1.65,8.54-3.45,12.61-5.44-11,19.27-8.81,33.05.74,42.53,5.01,4.86,10.53,7.6,17.94,7.6,1.57,0,3.21-.12,4.93-.39,23.11-3.29,43.35-27.61,51.46-49.07,7.64-2.43,15.16-6.89,22.01-12.22-.35.51-.71,1.02-1.06,1.53-11.16,16.53-16.25,25.89-16.25,33.8,0,5.13,2.35,7.83,7.71,10.81,4.35,2.35,7.83,3.45,10.93,3.45.59,0,1.14-.04,1.68-.12,3.72-.51,5.13-2.11,15.12-17.31,5.83-8.85,11.51-16.96,16.96-24.36,6.97-9.44,13.63-17.78,20.13-25.3,9.28-10.77,18.13-19.85,26.86-27.88.86,2.11,2.9,5.01,5.21,6.77,1.45,1.06,2.47,1.64,4.27,1.64.51,0,1.1-.08,1.8-.16-3.6,6.19-7.44,12.65-11.67,19.74-1.49,2.51-3.02,5.13-4.62,7.79-3.92,6.58-6.7,12.1-8.54,16.8-5.09,13.12-2.51,19.89,4.9,25.69,5.17,4.27,10.49,5.56,15,5.56,1.21,0,2.35-.08,3.45-.24,14.25-2.04,32.62-19.7,45.5-35.44,6.11-7.44,11-14.45,13.63-19.19l.7-1.25c4.27,4.46,9.09,8.03,9.09,12.92,0,1.8-.63,3.88-2,6.15-4.11,7.25-14.96,16.57-32.66,25.14-1.88.98-2.35,2.43-1.41,4.42.94,2.19,2.58,4.5,5.13,6.97,2.86,2.62,5.87,4.15,10.26,4.15,1.02,0,2.11-.08,3.29-.27,8.38-1.18,17.7-6.7,22.83-11.16,10.73-9.24,14.21-17.19,14.18-24.67,0-2.27-.35-4.19-.9-5.91-1.76-5.05-5.52-8.03-8.65-10.57t-.08-.08c-.08-.08-.16-.16-.27-.2-2.55-2.11-4.58-3.99-4.58-6.62,0-8.14,17.47-20.68,33.76-28.12,2.59-1.33,3.02-4.19-2.58-12.26ZM1331.84,980.98c-.24-.67-.47-1.8-.47-2.7-.04-10.26,13.04-14.26,33.33-20.4-9.32,9.52-20.75,18.13-32.86,23.11ZM1375.15,945.66c-14.45,4.15-25.42,7.6-33.56,10.85,12.81-19.54,33.29-30.86,44.49-33.87,0,5.6-4.19,14.14-10.93,23.03ZM1432.36,974.83c-1.68-14.45,9.48-30.98,24.16-44.96.7,7.6,4.93,13.51,14.02,14.57-9.09,13.86-24.2,27.02-38.18,30.39ZM1476.58,932.62c-7.68-.08-11.2-3.8-11.67-10.02,3.96-3.13,7.91-6.03,11.63-8.65,1.41,1.68,2.11,4.39,2.11,8.34,0,3.25-.67,6.62-2.08,10.34Z"/>
    <path class="cls-1" d="M862.39,996.37c-1.35-2.94-4.83-4.23-7.79-2.89-7.11,3.27-14.29,6.44-21.33,9.42-2.99,1.27-4.38,4.71-3.12,7.7.95,2.24,3.12,3.58,5.41,3.58.76,0,1.54-.15,2.29-.47,7.15-3.03,14.44-6.25,21.65-9.56,2.95-1.35,4.24-4.84,2.89-7.79Z"/>
    <path class="cls-1" d="M57.42,897.65c-2.27-2.35-5.99-2.43-8.3-.2-2.35,2.23-2.43,5.95-.2,8.3,10.57,11.04,22.09,21.73,34.27,31.84,1.1.94,2.43,1.37,3.76,1.37,1.68,0,3.37-.74,4.5-2.11,2.08-2.51,1.76-6.23-.74-8.3-11.87-9.79-23.07-20.21-33.29-30.9Z"/>
    <path class="cls-1" d="M611.82,1055.43c-14.61.98-30.04,1.61-45.78,1.88-3.25.08-5.83,2.74-5.8,5.99.08,3.21,2.7,5.76,5.87,5.76h.12c15.98-.27,31.56-.9,46.37-1.92,3.25-.24,5.68-3.02,5.48-6.27-.24-3.25-3.09-5.72-6.27-5.44Z"/>
    <path class="cls-1" d="M702.48,1043.56c-14.69,2.9-29.84,5.4-45.11,7.4-3.21.39-5.48,3.33-5.09,6.58.39,2.94,2.94,5.09,5.83,5.09.24,0,.51,0,.74-.04,15.55-2.04,31.02-4.54,45.94-7.52,3.17-.63,5.25-3.72,4.58-6.93-.63-3.17-3.72-5.25-6.89-4.58Z"/>
    <path class="cls-1" d="M520.15,1057.15c-14.53-.31-29.57-.86-45.94-1.68-3.33-.12-5.99,2.31-6.15,5.56-.16,3.25,2.31,5.99,5.56,6.15,16.49.86,31.6,1.41,46.25,1.72h.16c3.17,0,5.8-2.55,5.87-5.72.04-3.25-2.51-5.95-5.76-6.03Z"/>
    <path class="cls-1" d="M428.27,1052.69c-4.03-.31-8.07-.59-12.14-.9-10.96-.78-22.2-1.92-33.44-3.37-3.25-.47-6.15,1.88-6.58,5.09-.39,3.21,1.88,6.15,5.09,6.58,11.43,1.45,22.91,2.62,34.07,3.45,4.07.27,8.15.59,12.22.86h.39c3.05,0,5.64-2.35,5.87-5.44.2-3.25-2.23-6.07-5.48-6.27Z"/>
    <path class="cls-1" d="M790.59,1019.4c-14.45,5.05-29.14,9.63-43.63,13.63-3.13.86-4.97,4.07-4.11,7.21.71,2.62,3.05,4.35,5.64,4.35.51,0,1.06-.08,1.57-.24,14.76-4.03,29.72-8.69,44.41-13.82,3.05-1.1,4.66-4.42,3.6-7.52-1.06-3.05-4.42-4.66-7.48-3.6Z"/>
    <path class="cls-1" d="M166.21,979.41c-13.55-7.4-26.67-15.35-39-23.61-2.7-1.84-6.34-1.1-8.15,1.61-1.8,2.66-1.1,6.34,1.61,8.15,12.65,8.46,26.04,16.6,39.9,24.16.9.51,1.84.7,2.82.7,2.08,0,4.07-1.1,5.17-3.05,1.53-2.82.47-6.38-2.35-7.95Z"/>
    <path class="cls-1" d="M337.62,1040.94c-14.88-3.02-29.84-6.62-44.45-10.65-3.13-.86-6.38.98-7.25,4.11-.86,3.13.98,6.34,4.11,7.21,14.84,4.11,30.08,7.75,45.23,10.85.39.08.78.12,1.18.12,2.74,0,5.17-1.92,5.76-4.7.63-3.17-1.41-6.3-4.58-6.93Z"/>
    <path class="cls-1" d="M249.58,1016.54c-14.45-5.17-28.74-10.85-42.45-16.92-2.98-1.33-6.42,0-7.75,2.98-1.29,2.98.04,6.42,2.98,7.75,14.02,6.19,28.55,12.02,43.27,17.23.67.24,1.33.35,1.96.35,2.43,0,4.7-1.49,5.56-3.92,1.1-3.05-.51-6.38-3.56-7.48Z"/>
    <path class="cls-1" d="M15.02,843.89c-1.74-2.75-5.38-3.55-8.11-1.81-2.74,1.74-3.55,5.37-1.81,8.11,4.22,6.64,8.77,13.27,13.53,19.71,1.15,1.56,2.93,2.38,4.73,2.38,1.21,0,2.44-.37,3.49-1.15,2.61-1.93,3.16-5.6,1.23-8.21-4.6-6.23-8.99-12.63-13.07-19.03Z"/>
  </g>
  <g>
    <path class="cls-1" d="M1653.08,580.44c0,.31,2.9,4.19,2.9,4.62-.74,2.04-4.31,2.11-4.58,2.9-3.88,10.85,4.93,10.18-9.4,11.9l10.46,6.31-13.63-.31c9.36,7.32,5.56,8.22,2.47,9.71l-12.49-1.45c3.17-3.8,8.58-3.8,5.52-9.71-15.9,1.02,2.39-7.64-.47-11.4-1.53-1.96-5.99.9-9.05-3.25-2.04-2.86-4.19-26.12-6.07-31.21-.39,5.87-7.71,14.41-8.73,17.23,0,.31,2.9,4.19,2.9,4.62-.74,2.04-4.31,2.11-4.58,2.9-3.88,10.85,4.93,10.18-9.4,11.91l10.46,6.31-13.63-.31c17.66,13.82-11.55,4.78,5.6,19.82l-8.34-.94-.82,3.76,7.44,6.27-11.36-1.06,3.64,5.4c-26.79,2.43,14.84,7.56-9.4,13.39l10.38,9.36c-21.22-4.43-12.26,2.62-13.75,4.23-1.49,1.61-4.86.08-5.33.63-4.66,5.36,3.02,6.23-6.27,8.93l-6.74-3.95,7.79-8.89-9.12,1.29,12.34-8.81-11.36.51,4.11-14.29-12.1-.31c5.09-7.21,14.14-17.66.39-16.64,4.82-10.69-10.65-25.14-10.49-42.14-1.33,6.77-8.26,13.55-8.54,14.41-.16.47,1.45,10.06,1.25,10.61-.59,1.96-4.31,2.15-4.62,2.94-.78,2.04,3.05,4.15,2.94,4.62-1.41,4.82-8.38-.82-10.69,2.74-.35.63,3.45,12.26,4.23,13.75l-7.6,1.33c18.05,9.12-6.03-2.66,1.96,12.96-11.59-3.64-9.01-.51-6.97,2.94-3.45-1.61-6.97-2.98-10.54-4.23-.31-.94-.78-1.8-1.45-2.58-8.85-10.53-18.72-18.72-29.25-24.99,1.21-1.64,2.19-3.68,2.82-6.34l-10.89,1.92h-.04c-2-1.02-3.99-2-6.03-2.86,4.9-3.49,9.75-6.46,11.24-12.84l-19.78,2.58,12.3-7.28-4.46-3.13c17.94-11.47-9.16-3.76-10.46-6.34l9.36-10.38-12.18,1.21,6.27-8.93c-11.59-.67-2.23-4.42-2.86-6.11-1.64-4.46-7.52-11.16-7.91-17.62-2.82,8.65-2.15,22.09-11.98,24.71,22.95,17.7-26.08-2.27,8.62,19.89-8.85,6.19-13.04-2.78-19.7,1.06,3.6,5.56,4.54,9.36,14.8,13.98-2.47-.31-4.7-.55-6.66-.74-.08,0-.16-.04-.23,0-.08,0-.16-.04-.24-.04-15.98-2.9-31.84-3.6-46.37-3.6-5.48,0-11.32.12-17.9.35l23.26-97.24c17.97,7.71,39.24,15.94,49.3,20.25,31.17,13.28,63.72,24.36,95.36,36.38l-109.96-59.49-7.28-10.77c-3.45,11.04-17.07,12.26-26,7.71l6.89-28.74c.08-.31.16-.63.16-.94,24.44,9.79,64.38,28.63,70.25,30.78,2.11.74,11.32,4.82,12.81,2.58l-107.22-109.42-55.49,28.2c-3.6-1.18-7.28-2-10.97-2-.63,0-1.25.04-1.84.12l28.86-25.96,93.63-20.09,39.2,43.19,3.72-30.23,79.46,100.41,116.82,86.9c-.47,5.87-7.68,14.29-8.69,17.07Z"/>
    <path class="cls-1" d="M916.85,221.22c-2.23-5.44-.59-35.21-9.24-50.17l-156.49,143.25-22.28,16.72c28-4.27,56-8.69,84-13.16l28.55-14.33,11.94,7.75c48.09-7.87,96.02-15.94,143.64-24.12l-4.23-8.07c-9.75-11.36-72.25-48.99-75.89-57.88Z"/>
    <path class="cls-1" d="M887.4,58.39c.7,3.09,46.76,26.86,49.07,39.04l-42.57-24.51c-2.19,1.76-1.49,11.28-1.1,12.84,4.03,15.27,49.97,57.37,54.36,72.53,2.35,8.15.51,27.06,2.15,36.46l94.22,84.43c14.88-2.59,29.68-5.17,44.49-7.71L889.28,12.22c3.25,10.49-3.37,39.24-1.88,46.17Z"/>
    <path class="cls-1" d="M1201.95,420.04l-19.82,3.37,55.65,55.84c2.47-3.45,4.9-7.05,7.36-10.69-7.17-7.13-14.37-14.37-21.54-20.25l-21.66-28.27Z"/>
    <path class="cls-1" d="M209.41,458.61c-56.86,29.96-122.5,53.38-167.45,99.31l163.14-72.64-24.12,25.96c2.47,4.78,38.3-24.51,57.37-40.14-10.65-3.37-20.72-7.44-28.94-12.49Z"/>
    <path class="cls-1" d="M135.17,557.87c-12.26,10.76-32.09,18.59-45.39,28.46,24.67-8.11,46.39-23.07,69.77-33.94,27.84-12.94,67.03-14.04,73.93-49.75-13.48,5.45-36.6,24.24-49.16,27.62-6.57,1.77-23.84.06-28.85,2.34-1.48.67-14.45,20.13-20.31,25.28Z"/>
    <path class="cls-1" d="M351.39,261.48l-143.86,144.37,127.22-113.7c3.47-10.23,17.35-19.68,16.65-30.67Z"/>
    <path class="cls-1" d="M395.54,378.53c1.45-4.03,3.05-8.93,4.11-12.26,1.76-5.37,3.13-9.56,4.07-11.87,2.11-5.17,4.5-10.26,7.17-15.27l-30.62-17.86-19.7,32.11,34.97,25.14Z"/>
    <path class="cls-1" d="M411.6,337.72c3.05-5.76,6.38-11.36,9.99-16.76-24.48-26.79-49.11-53.61-58.08-59.21-2.35.27-7.05,29.41-6.07,32.46,1.64,5.05,39.2,31.06,54.16,43.51Z"/>
    <path class="cls-1" d="M446.37,598.65c-8.65,2.86,12.69,16.84-7.83,10.42,3.72,10.53-10.42,2.47,4.93,16.06l-9.16,2.78,7.44,4.74c-24.08-5.72,2.27,9.79-19.78,4.07l2.47-8.26-8.42,3.56c12.41-9.32,2-11.16,6.54-21.03l-15.19,2.66c2.55-6.58,10.26-6.54,5.64-14.25l-6.15,2.86c-8.11-10.1,10.42-8.07,8.85-20.25l-12.14-.27c16.37-17.23,2.58-4.86-4.19-13.75,12.73-6.34-3.17-7.52,9.32-10.38l-12.06-1.8c12.41-11.83,1.49-6.46.2-9.09-.47-1.06,3.56-12.92,3.37-13.59-1.1-3.41-6.54-1.61-7.52-3.21-.47-.78,2.66-4.31,1.72-7.52-.39-1.29-2.7-.31-3.02-1.61-2-7.95-.27-21.81-4.58-29.65-2.04,8.58-7.79,18.6-10.49,26.28-.08.27,1.68,5.05,1.37,6.07-.23.86-7.6,6.7-7.75,7.4-.2.9,1.88,15.86,2.62,18.25-1.68,2.23-12.45-2.35-.24,9.09l-9.83-.98c-2.51,8.07,11.63,7.91-4.03,9.75l3.68,5.4c-12.73-4.11-.04,8.62.47,11.36.43,2.35-9.48,6.38,2.66,15.23l-10.61,1.25,8.85,9.28-14.29-4.11,5.09,8.46c-17.7-2.82-3.21,3.64-3.13,4.46.31,3.37-13.47.12,2.7,13.71-15.19,3.64,3.37,7.17-1.14,15.9-6.46-10.26-7.01,1.8-12.81-2.58,13.59-11.59.43-6.62-1.29-9.12l6.27-8.97-9.12,1.33,4.78-9.01c-17.7-3.8-3.21-5.87-5.76-13.75-.51-1.57-4.15-.12-4.5-1.64-1.33-5.99,1.18-15.43-4.82-20.56-3.37.2-1.84,19.27-4.31,21.85-2.39,2.55-5.17-1.49-6.07-.16-1.68,2.58,2.94,5.8,2.9,6.15-.27,2.82-2.62,6.7-3.29,10.53-.08.59,3.45,2.16,2.94,4.62-1.25,5.83-21.5-.43-4.9,13.51-12.81-5.52-11.24-2.78-1.61,4.5-22.17-2.94,17.74,19.23-8.54,8.14l5.09,8.46c-15,14.49-10.38-9.63-28-1.45l8.62-11.16-10.57-1.76,10.89-11.87-13.63-.31,7.91-13.47-12.1-.27,9.28-8.85c-2.08-3.76-11.51.82-12.1-.31-1.02-1.88,4.66-14.65,1.25-20.44-.16-.2-5.13,2.43-5.29-.86-.16-2.62,3.29-4.07,3.13-4.46-.78-2.15-4.27-2.35-4.46-3.13-1.18-4.43-2.9-32.43-4.54-32.7-6.27,11.83-7.32,26.39-12.26,38.34-.51,1.14-5.29.12-6.15,2.9-.16.51,3.64,6.34,2.78,10.65-.47,2.23-6.27,8.38-6.27,8.97.08,1.53,3.6,5.83,5.91,6.19l-9.83-.98c-5.33,3.13,4.78,6.66,2.04,9.91-1.45,1.68-5.21-.35-6.11,1.33-.16.27,5.72,1.92,3.68,3.88-3.33,3.29-8.81-2.04.47,12.92-13.16.86,1.84,6.03,4.27,12.22-1.45,2.7-18.01-11.08-12.18,1.21l5.95,4.7-15.16-.35c-.43,1.37,17.74,9.48,1.37,6.07l-12.18,2.74-16.64-.39c-2.04-3.96,10.57-8.3,7.87-13.43-1.29-2.51-6.07,2.39-8.38,2.04-.51-.04-3.88-9.52-3.52-9.91.74-.86,9.01-1.06,9.24-7.36l-12.06-1.8c9.28-12.02.82-6.46.16-7.6-5.48-9.16-2.15-17.98-7.68-26.67-6.34,8.11-6.97,18.64-10.53,27.77-.78,2.08-5.33,2.31-6.15,4.39,0,.35,2.94,2.78,2.94,3.13-.47,1.18-4.27,3.33-4.62,4.43-1.14,3.37,8.58,5.09-4.7,5.95-.12,12.22,13.35,14.84-.39,16.64l8.89,7.79-12.1-.27c18.99,18.44-16.88,8.69-16.88,8.69l12.3-7.28c-11.63-5.76-17.66,6.03-8.81-12.34l-10.57-1.8c9.32-3.8,3.02-7.71,7.87-11.91-13.55-2.78-6.93-11.4-7.28-12.3-.31-.86-3.64-.98-4.46-3.17-1.02-2.66,2.23-4.43,1.64-5.99-.23-.74-7.56-7.17-6.5-13.04-3.13,5.01-8.5,16.49-10.38,21.73-.74,2.15,2.98,3.92,2.94,4.58-.23,4.27-9.71-1.84-10.69,2.78-.12.74,7.05,5.76,5.87,7.71-1.8,3.09-8.65-4.78-7.64,2.86.82,2.7,18.88,8.77-3.92,5.21,17.19,19.03-17.27.67,1.92,15.98-.51,3.29-3.92,1.37-6.42.2-1.49-1.57-5.87-.31-7.83-4.66-1.37-3.25,1.45-26.43.67-31.8-1.61,5.64-10.57,12.45-12.18,15-.04.31,1.96,4.7,1.88,5.13-1.18,1.8-4.66,1.14-5.09,1.84-6.11,9.79,2.66,11-11.71,9.67l8.85,8.34-10.34-2.47-12.96-5.8c4.19-2.66,9.32-1.06,8.18-7.6-15.43-3.84,4.58-6.58,3.02-11-.86-2.35-5.99-.94-7.64-5.83-.78-2.39,1.61-15,2.86-23.85,26.47-12.02,87.09-33.37,97.08-37.71,22.67-9.83,50.63-21.54,72.02-33.13,11.36-6.15,66.61-46.44,70.84-46.8,5.05-.43,44.53,18.13,52.55,20.95l-46.88-36.73,7.95-8.54c4.93.51,9.2.78,12.49.94h.47l34.38-.59.2,1.17c.31.27,1.45-.23,3.05-1.21l39.83-.67,11.79,35.99c9.05,27.53,26.63,47.58,49.54,57.68-1.29,1.61-2.47,2.86-2.66,2.35,9.32,17.31,2.31,8.42-.27,12.1-.55.78,14.96,14.37.55,8.34Z"/>
    <path class="cls-1" d="M619.03,317.12l-4.15,4.9c.71,1.8,1.37,3.64,2,5.48l62.89-46.01-11.08,19.42c29.45-10.85,42.92-52.67,66.3-71.86,11.32-9.28,94.5-149.13,97.67-154.49-5.13,5.83-169.37,189.03-219.93,221.96-2.55,1.65-5.05,3.41-7.52,5.25,3.21,5.48,5.99,11.2,8.38,17.03,3.05-1.72,5.05-2.43,5.44-1.68Z"/>
    <polygon class="cls-1" points="1063.24 443.54 1057.36 444.51 1007.67 452.93 1010.25 457.48 1054.9 464.13 1065.59 465.74 1076.32 467.19 1093.63 469.54 1097.03 458.53 1098.95 452.31 1107.76 455.67 1107.8 455.67 1175.47 481.52 1124.45 433.16 1124.41 433.16 1063.24 443.54"/>
    <path class="cls-1" d="M1556.71,326.29c1.92-1.65-3.21-7.05-4.46-8.46-44.21-50.05-110.9-70.8-175.99-81.02-94.5,15.74-725.65,113.8-758.16,118.34l-2.47-.51c-.51-.12-3.72-16.96-4.19-18.56-3.05-10.38-7.4-20.01-12.45-29.53-10.14-17.94-24.48-33.21-42.72-40.34-27.57-10.73-56.9-4.82-81.22,10.73-.12.08-.23.16-.35.24-1.33.9-2.7,1.8-3.99,2.74-26.59,19.35-47.35,47.11-59.72,77.46-1.64,4.03-5.68,17.54-8.77,25.92-1.37,3.72-2.58,6.42-3.29,6.93l-5.37.9-194.83,32.78c-5.29,4.54-.98,12.92,2.39,17.47,3.64,4.9,9.36,9.16,16.41,12.92,8.07,4.31,17.86,7.87,28.2,10.81,19.27,5.48,39.12,8.54,59.09,9.79,18.44,1.18,36.73-.16,55.14-.08,7.48.04,15-.27,22.52-.39l10.61-.16c1.96-.86.43-14.1-.16-24.75-.31-5.56-.35-10.42.51-12.41.98-2.23,2.94-3.17,5.29-2.47-1.14,2-1.33,10.03-.94,19.42.43,11.32,1.76,24.59,3.21,31.52.67,2.94,1.33,4.78,1.96,4.82l.55-3.33,2.11-12.3,14.53-.24,63.83-1.1,2.51-6.77c.98,22.05,17.19,41.35,35.32,56.51,7.95,6.7,16.29,12.57,23.85,17.54.74.47,37.71,21.85,37.83,21.97.27.27.39.43.43.59.43,3.13-1.33,7.72-1.21,11.16-2.7-1.06-5.33-1.96-7.87-2.74-1.37-.47-2.7-.86-4.03-1.21-11.4-3.13-20.72-3.6-27.92-1.68-7.32,1.96-12.45,6.38-15.23,13-1.84,4.27-2.66,9.44-2.51,15.47,0,1.72.12,3.56.35,5.52.74,6.93,2.66,14.8,5.72,23.54l7.09-.31c.63,2.11,1.41,4.19,2.35,6.15,2.39,5.21,5.72,9.83,9.71,13.67.35.39.71.74,1.06,1.1,14.33,13.12,36.11,16.41,52.44,1.02l1.02,12.41c.08,1.21.94,2.23,2.11,2.55,15.39,4.35,87.09,26.86,87.09,26.86l30.12,7.28c1.64.39,3.25-.74,3.45-2.43.74-6.58,1.64-12.81.74-19.58-1.49-10.69-9.44-18.91-12.06-29.02l30.82-16.13,19.31-10.1s12.92,2.31,12.96,2.31l77.74,13.82c3.52,6.3,6.54,13.04,11.87,18.21,3.8,3.68,9.95,6.03,12.41,9.32,2.04,2.7,2.23,6.34,3.64,9.32,1.45,3.13,3.72,6.07,6.03,8.58,6.81,7.4,16.64,11.94,26.59,12.88,5.13.51,10.42,0,15.27-1.68,4.7-1.65,9.09-6.07,14.1-6.5,16.25-1.41,36.93,6.11,49.3-8.65,1.57-1.84,8.73-19.54,9.01-19.54,13.47,1.14,26.94,3.41,40.45,4.27,20.68,1.33,41.43,2.47,62.23,3.56,31.88,1.64,63.79,3.13,95.55,5.01,32.66,1.96,77.66,13.35,107.65-2.15,1.96-1.02,3.84-2.15,5.68-3.41,1.8-1.25,3.56-2.62,5.25-4.15l1.68-.2c30.66-4.39,61.8-6.66,92.58-9.95l70.14-7.56,9.79-1.06c-1.84-2.19-3.72-4.27-5.64-6.23-24.28-25.1-59.21-34.23-93.09-36.26-13.35-.82-26.55-.08-39.87-.08-2.35.08-4.66.2-6.97.31l33.99-141.96c-2.98-1.53-6.03-3.13-9.09-4.86-.04-.04-40.37-25.34-59.99-32.82-5.44-2.07-9.75-3.48-13.82-3.48-.2,0-.39,0-.59.04-15.15,3.02-26.28,19.82-33.72,32.19-.12.2-.27.43-.43.67-12.49,18.76-24.44,38.93-40.3,55.06-12.1,12.34-28.63,22.6-46.44,23.42-.27.04-.55.04-.82.04-1.14.08-2.27.12-3.45.16-9.79.31-155.82-36.3-158.52-36.3-5.01-2.07-28.78-32.58-32.07-38.57-.9-1.61-2.31-2-1.33-4.62l225.06-38.07-15.35-24.71,30.98,11.32,331.81-71.19ZM407.64,387.22c7.32-18.99,14.8-37.16,25.1-54.08,4.54-7.4,9.59-14.57,15.43-21.46,49.3-58.23,108.98-58.82,142.9,1.41,2.7,4.74,5.21,9.91,7.52,15.43.9,2.07,1.76,4.19,2.58,6.34.24.63.51,1.49.74,2.51.08.27.16.59.23.9,1.21,4.86,2.55,12.06,3.41,13.28,1.02,1.45,3.92,2.23,5.87,2.74.2.08.35.12.51.16l-.7.59-2.66,2.15-69,10.93-29.06,4.58-34.66,5.48-66.22,10.49-2.74.43c.23-.63.47-1.25.74-1.88ZM476.29,426.42c13.67,7.32,26.36,18.52,42.53,20.32-14.29,15.31-34.15-8.46-42.53-20.32ZM585.47,635.38c-.63-.04-1.25-.12-1.84-.24-12.45-2.19-12.14-18.95-1.37-8.46.31.31.86,1.21,1.49,2.35.2.43.43.94.63,1.41.51,1.14.98,2.31,1.17,3.21.2.86.2,1.49-.08,1.72ZM629.92,654.5v-.04h.04l-.04.04ZM715.45,673.45c-2.74-4.43-8.89-10.46-11-14.49-1.37-2.55-.98-4.46,1.29-4.31,3.72.31,11.47,14.14,9.71,18.8ZM729.43,624.07c-3.48,2-45.06,27.47-46.33,28.63-8.65,7.83-56.94,2.52-58.2,4.98l-12.64-3.61,3.21-13.75c2.9-1.57,13.51,6.46,12.3.27-2.86-14.53-11.2-27.53-22.52-36.97-10.1-8.42-27.02-17.66-40.69-16.1-5.76.67-9.2,4.39-7.36,13.47.51,2.55,2.47,4.15,4.74,5.48,3.05,1.8,6.66,3.17,8.03,5.91-5.01-.43-9.79-1.21-14.53-1.57-5.83-.43-11.55-.24-17.58,1.92-1.41.51-1.02-23.38.12-26.32,2.23-5.8,6.85-9.36,12.96-10.26,11.55-1.72,23.34,2.62,33.44,7.91,5.29,2.78,10.38,5.99,15.23,9.48,6.93,4.93,13.63,10.49,18.84,17.31,1.45,1.88,12.81,20.95,11,21.62,20.4-7.32,38.97,1.29,58.08,7.79l38.53-21.34,4.7-2.58,3.09-1.72-4.43,9.44ZM597.57,568.81l12.84,4.07,39.28,12.37,1.1.35h.08l10.61,3.41,19.66,6.19,35.13,11.08,3.88,1.25,1.88.59-33.95,23.03c-1.8-.55-3.6-1.1-5.4-1.68h-.04c-1.76-.55-3.52-1.14-5.29-1.68-2.66-.86-5.29-1.72-7.95-2.47-.04,0-.08-.04-.08-.04,0,0,0-.04-.04-.04h-.08c-1.68-.51-3.37-.98-5.05-1.41-1.76-.43-3.49-.86-5.25-1.21-.47-.08-.9-.16-1.33-.24-7.44-1.41-15.08-1.76-23.22-.12-5.05-8.54-7.91-16.09-14.8-23.61-1.21-1.33-3.41-3.13-5.99-5.09-6.85-5.29-16.45-11.67-16.92-12.65-1.18-2.31,1.18-8.89.94-12.1ZM776.42,608.13h-.04c-12.02-2.51-24.01-5.13-35.95-7.91-1.45-.35-2.94-.71-4.39-1.06-6.97-1.64-13.9-3.37-20.79-5.17-10.26-2.62-20.52-5.4-30.66-8.42t-.08-.04s-.08,0-.12,0c-.39-.12-.74-.24-1.14-.35-1.41-.39-2.82-.82-4.23-1.25-7.44-2.23-14.76-4.58-22.13-7.05h-.04c-13-4.35-25.85-9.05-38.57-14.18-5.52-2.23-11.04-4.58-16.53-6.97-4.5-1.96-8.97-3.99-13.43-6.11l-13-7.99c9.05,3.84,18.13,7.6,27.3,11.12,2.82,1.14,5.64,2.23,8.46,3.29,12.18,4.66,24.44,9.09,36.77,13.24.12.04.23.08.35.12h.47s.04,0,.08.04c3.88,1.29,7.32,2.59,11.24,3.84,8.34,2.74,16.72,5.33,25.18,7.79h.04c8.18,2.43,16.41,4.74,24.71,6.97,14.14,3.76,28.39,7.25,42.72,10.42,8.58,1.92,17.54,3.41,26.59,4.86h.04c15.27,2.43,30.7,4.66,44.84,8.07,4.39,1.06,9.59,3.37,10.97,8.07-19.54-3.56-39.12-7.28-58.66-11.32ZM933.07,664.99c-7.05.24-15.39-4.66-15.7-12.3.78.35,1.45.67,2.11.94h.04c4.5,2.04,6.93,3.29,10.14,6.62.59.59,1.17,1.29,1.84,2.04.82.94,4.58,1.17,1.57,2.7ZM998.78,641.26l-1.21-5.44c24.59,1.72,48.36,7.91,73.07,9.12l16.45,5.21-88.31-8.89ZM1002.34,504.63l7.72,3.49c28.08,12.02,55.77,25.14,83.65,37.71,28.31,12.81,56.63,25.81,85.06,38.38-2.86-1.8-5.8-4.11-7.44-5.05-32.66-19.07-65.44-37.91-98.1-57.02,6.38.86,13.71,2.43,21.7,4.31,10.57,2.51,22.28,5.56,34.38,8.34,6.07,1.41,12.26,2.74,18.44,3.92,19.42,3.64,40.57,6.5,59.96,1.21,17.97-4.86,29.06-18.37,39.47-32.94,16.21-22.75,31.17-47.97,50.52-68.18.39-.43.9-.82,1.45-1.25,5.87-4.39,10.97-4.5,17.51-1.53,11.28,5.05,22.4,10.38,33.33,16.21,2.74,1.45,18.05,7.64,18.25,11.43-12.92,45.47-25.85,90.93-38.85,136.4l-14.57,1.96-49.3,6.7-24.71,3.37,22.24.27c27.45.35,54.9.67,82.36.98,36.66.39,72.92-1.57,107.65,12.49,3.17,1.29,9.59,3.25,11.71,6.27.2.24.35.47.47.74-1.02-.35-2-.67-3.17-.98-13.75-4.35-27.88-7.36-42.25-9.2-57.41-7.36-115.45-1.18-173.01.74-13.24.43-26.04.2-39.24-.39-1.53-.08.35,3.37.67,3.64,2.31,2.04,8.89,2.27,11.94,3.25,9.67,3.05,19.5,5.76,29.14,8.93,2.43.78,27.41,9.56,25.02,12.3-15,2.9-30.31.98-45.39-1.02-32.78-4.35-65.52-9.83-98.25-15.63-54.67-9.71-109.38-18.84-164.12-27.96-2.82-.35-5.64-.7-8.46-1.06-3.8-.51-7.56-.94-11.32-1.41-1.61-.2-3.21-.39-4.82-.59,0,0,3.05,1.72,3.09,1.76,14.22,8.03,28.78,15.59,36.81,30.55,5.37,9.99,9.12,24.71-1.84,32.74-5.17,3.8-12.06,4.7-18.33,4.7.59-2.86,4.46-1.49,7.6-3.56,12.14-8.03,6.34-22.75-1.53-31.49-10.18-11.28-26.75-23.97-41.94-27.22-19.66-4.31-34.23.98-31.49,23.3l3.99.59s8.42,1.18,8.69,1.21c4.93.71,10.61,4.86,14.1,8.03-10.14-.08-20.13-2.51-30.27-2.94-1.88-.08-5.25,3.29-8.26,1.8-.04-.04-.12-.04-.16-.12-2.86-1.64-7.52-11.79-10.69-15.27-5.87-6.46-12.69-11.91-19.38-17.5-3.29-2.74-13.35-9.36-13.2-14.25.12-3.76,2.78-5.48,6.5-6.07,5.4-.82,12.96.9,17.7,2.55,2.39.86,4.03,1.68,4.35,2.15,1.14,1.72-.55,5.52,0,7.56,1.02,3.96,4.5,5.76,7.6,7.91,2.35,1.64,4.66,3.41,5.68,5.25,6.54-8.81,10.57-12.1,19.93-17.19,1.68-.9,3.25.63,2.7-3.68l-33.56-6.66-4.46-.9-25.53-5.05-48.56-9.67-24.32-4.82,92.34-74.17,9.44-7.6c4.31-3.02,10.61,1.25,14.61-1.96,3.33-2.62,2.9-8.54,4.42-12.53.16-.43.31-.86.55-1.25,1.61-2.9,9.09-6.5,11.63-9.56,1.37,4.97,1.21,10.69,1.72,16.13.51,5.56,1.76,10.81,6.11,14.57.35.31.7.63,1.1.9,4.15,3.02,21.81,7.32,35.13,8.81,6.85.78,12.49.82,14.49-.47,1.33-.86,2.11-2.23,2.43-3.96,1.68-8.58-7.79-25.81-11.51-31.05-7.64-10.69-18.37-16.45-31.09-19.15l15.55-13.59c32.86,11.04,44.06,50.24,68.26,72.33ZM1348.72,611.77c-.24,0-.43-.08-.59-.12v-.04c.2.08.39.12.59.16ZM918.15,485.09l2.23-2.43,17.11-18.68c16.41,13.59,11.79,23.03-.2,24.36-5.33.67-12.1-.35-19.15-3.25ZM1026.35,358.67l-21.38,3.56c-26.83,18.25-247.18,196.39-259.95,203.56-9.09,5.13-14.88,3.05-17.43-7.13-9.24-1.76-95.87-30-99.35-31.45-9.05-3.68-29.02-11.51-29.49-12.14-.08-.08-6.46-2.94-9.59-4.27l1.02-4.46v-.04l2.08-9.36-5.72,6.97-18.6,22.67c.82-6.23,12.53-15.59,12.88-20.95,0-.9-3.09-.94-3.37-2.55-.16-.82.27-17.86.51-23.65-6.74,6.58-18.95,21.77-19.35,21.89-3.84,3.6-8.11,6.66-13.31,8.5-3.09,1.1-6.15,1.61-9.09,1.57-16.6-.08-30.19-16.25-33.09-32.35,2.78.12,5.56.16,8.38.04,2.78-.08,5.56-.27,8.34-.67,15.35-1.96,29.96-8.26,38.18-22.4.12-.2.2-.35.31-.55,15.66-27.45,14.14-69.32-26.75-64.54,1.96,13.78,3.49,26.94-4.39,38.65-.82,1.21-1.72,2.39-2.74,3.56-19.7-6.07-41.16-10.77-57.1-24.63l6.03-6.5c-10.06-5.01-13.78,9.56-19.7,11.59l-223.45,29.1,2.15,3.56,2.43,3.99c-1.25-.24-3.41-1.02-5.83-2.15-8.93-4.11-21.97-12.88-12.41-17.19,19.74-3.05,1070.9-166.87,1161.63-181.39,52.83,12.45,108.52,32.58,146.89,71.82-42.76-12.96-86.59-24.79-127.74-42.29-9.67-4.11-22.32-6.62-25.88-17.74l-7.52,8.73-354.25,62.27-3.33,2.86c9.48,3.8,21.62,12.1,19.97,23.5ZM519.53,457.48l11.32-8.97,6.31-9.91,6.77-10.73c.04,5.21-.71,10.14-2.31,14.45-3.33,8.89-10.42,15.04-22.09,15.16Z"/>
    <path class="cls-1" d="M1178.75,584.22c2.19,1.41,4.31,2.55,5.69,2.55-1.9-.84-3.79-1.71-5.69-2.55Z"/>
    <path class="cls-1" d="M510.23,566.31c-5.68,1.91-11.46,3.38-17.46,3.74-21.91,1.31-42.21-5.55-58.01-20.92-5.04-4.9-9.58-10.29-14.01-15.74-2.49-3.07-4.93-6.17-7.38-9.26-1.84-2.32-5.76-5.63-6.7-8.39.51,1.49,1.02,2.98,1.57,4.43,1.96,5.25,4.31,10.18,6.97,14.8,15.74,27.14,44.29,41.13,74.04,40.39l-.11.07c.84-.05,1.7-.15,2.55-.21,6.1-.32,12.24-1.2,18.32-2.77,7.12-1.84,14.9-5.38,17.04-12.43-.58,1.91-14.59,5.54-16.82,6.29Z"/>
    <path class="cls-1" d="M988.87,332.4c-9.67,0-20.29,3.05-29.88,4.5-31.84,4.82-63.6,9.63-95.48,14.41-23.42,3.56-46.91,6.97-70.33,10.65,1.25,1.53,2.47,3.05,3.72,4.58l11,13.47,88.74,35.13-13.08,14.72c-2.78-3.49-4.86-6.58-8.89-8.93-3.64-2.11-51.77-20.83-56.67-21.93-9.91-2.19-21.73,38.14-26.32,50.95l45.94,19.93-6.15,8.62-10.46,14.65,14.92-12.14,41.86-33.99c18.48-15.12,37.01-30.15,55.53-45.19,16.72-13.55,35.64-26.04,50.83-41.24,7.64-7.56,9.16-18.64,4.7-28.2ZM858.5,448.78c-12.3,10.89-13.9,12.65-28,7.21-1.18-.47-2.47-.98-3.84-1.53,1.41-.94,2.94-2.23,4.54-3.76,7.87-7.44,17.7-20.05,26.98-22.32,2.31-.63,4.62-.55,6.85.43,3.52,1.53,5.09,3.33,5.33,5.25.63,4.82-7.01,10.46-11.87,14.73Z"/>
    <path class="cls-1" d="M788.6,374.34c-4.03-8.61-13.43-11.59-24.75-11.59l-55.18,7.32-38.89,5.17-9.63,1.29-10.77,13.75c.08,0,.2.04.27.04,4.54.98,9.09,1.76,13.63,2.51,17.07,2.9,34.03,5.17,50.2,12.34,8.34,3.68,15.51,9.12,22.48,14.8.35.27.67.55,1.02.82,3.41,2.78,6.78,5.6,10.22,8.3,7.83,6.15,16.13,11.63,26.24,14.37,1.92-.16,2.31-2.39,3.02-3.84,2.62-5.48,7.05-19.62,10.3-32.58.08-.31.16-.63.23-.94,2.31-9.28,3.92-17.82,3.8-21.97-.12-3.88-.9-7.13-2.19-9.79ZM768.82,392.19c-3.56,7.64-9.52,16.25-12.18,22.28-.71,1.65-1.21,3.09-1.33,4.31-1.06-1.02-2.11-2.04-3.17-2.98-1.8-1.61-3.68-3.13-5.56-4.58-9.44-7.05-20.05-11.91-31.76-15.23,12.53-4.94,39.87-25.65,52.52-20.29,6.11,2.59,4.93,9.12,1.49,16.49Z"/>
    <path class="cls-1" d="M729.9,424.89c-.35-.35-.71-.7-1.06-1.1-3.99-4.03-8.03-7.99-12.69-11.08-14.96-9.87-37.2-15.35-57.72-17.47-4.82-.51-9.56-.82-14.02-.98h-.04c-3.37-.12-6.58-.16-9.63-.08l6.23,2.66,7.75,3.29h.04l67.9,28.82,5.25,2.23,12.22,5.17,8.3,3.53,5.48-.43c-3.21-1.57-6.11-3.56-8.85-5.83-3.25-2.7-6.23-5.72-9.16-8.73Z"/>
    <path class="cls-1" d="M526.07,481.83l-8.54.16-2.23.04c-1.21,6.89-2.15,13.82,6.5,15.12,2,.27,17.43-.43,18.84-.94,1.41-.51,2.39-1.45,3.05-2.7.27-.47.51-.98.7-1.53,1.1-3.29.9-7.6,1.25-10.46l-19.38.31h-.2Z"/>
    <path class="cls-1" d="M645.15,379.15c-19.7,2.39-39.75,3.17-59.45,5.6-2,.27-5.72-.55-5.52,2.11l57.37,2.27,7.6-9.99Z"/>
    <path class="cls-1" d="M596.75,473.81c-.67,3.25-1.49,6.15,2.39,7.75,5.56-13.94,11.36-28.31,13.28-43.27-7.4,4.93-13.94,26.63-15.66,35.52Z"/>
  </g>
</svg>